# xmcd
#
# Track frame offsets:
#	150
#	14110
#	24779
#	37162
#	49064
#	59998
#	72437
#	81051
#	91295
#	103664
#	116527
#	129885
#	143396
#	155166
#	169471
#	179966
#	191174
#	203831
#	218811
#	230352
#
# Disc length: 3226 seconds
#
# Revision: 0
# Processed by: cddbd v1.5.2PL0 Copyright (c) Steve Scherf et al.
# Submitted via: EasyCDDAExtractor 2010.6.0.0
#
DISCID=2b0c9814
DTITLE=Various Artist - Country Ladies [CD 5)
DYEAR=1900
DGENRE=Country
TTITLE0=Billie Jo Spears - Mr. Walker, it's all over
TTITLE1=Billie Jo Spears - I'm so lonesome I could cry
TTITLE2=Billie Jo Spears - You've got the power
TTITLE3=Billie Jo Spears - Look what they've done to my song ma
TTITLE4=Billie Jo Spears - If it ain't love
TTITLE5=Billie Jo Spears - The cheatin' kind
TTITLE6=Billie Jo Spears - You're my man
TTITLE7=Billie Jo Spears - It makes no difference now
TTITLE8=Billie Jo Spears - Sunshine
TTITLE9=Billie Jo Spears - He's on the run again
TTITLE10=Billie Jo Spears - Fever
TTITLE11=Billie Jo Spears - One more chance
TTITLE12=Billie Jo Spears - Ease the want in me
TTITLE13=Billie Jo Spears - I'll never be free
TTITLE14=Dolly Parton - Release me
TTITLE15=Dolly Parton - Honky tonk angels
TTITLE16=Holly Dunn - You really had me going
TTITLE17=Jeanne Pruett - Satin sheets
TTITLE18=Kitty Wells - Heartbreak U. S. A.
TTITLE19=Holly Dunn - Are you ever gonna love me
EXTD=
EXTT0=
EXTT1=
EXTT2=
EXTT3=
EXTT4=
EXTT5=
EXTT6=
EXTT7=
EXTT8=
EXTT9=
EXTT10=
EXTT11=
EXTT12=
EXTT13=
EXTT14=
EXTT15=
EXTT16=
EXTT17=
EXTT18=
EXTT19=
PLAYORDER=
